<svg width="85" height="85" viewBox="0 0 85 85" fill="none" xmlns="http://www.w3.org/2000/svg">
<g clip-path="url(#clip0_104_3)">
<path d="M42.5 0C65.9717 0 85 19.0283 85 42.5C85 65.9717 65.9717 85 42.5 85C19.0283 85 0 65.9717 0 42.5C0 19.0283 19.0283 0 42.5 0Z" fill="white"/>
<path d="M25.3 32.1429C25.3 29.8578 27.2283 28 29.6 28H55.4C57.7717 28 59.7 29.8578 59.7 32.1429V48.7143H55.4V32.1429H29.6V48.7143H25.3V32.1429ZM21 52.0286C21 51.3424 21.5778 50.7857 22.29 50.7857H62.71C63.4222 50.7857 64 51.3424 64 52.0286C64 54.7732 61.6888 57 58.84 57H26.16C23.3113 57 21 54.7732 21 52.0286ZM39.8797 39.4576L37.7969 41.4643L39.8797 43.471C40.5113 44.0795 40.5113 45.0634 39.8797 45.6654C39.2481 46.2674 38.2269 46.2739 37.602 45.6654L34.377 42.5583C33.7455 41.9498 33.7455 40.9658 34.377 40.3638L37.602 37.2567C38.2336 36.6482 39.2548 36.6482 39.8797 37.2567C40.5045 37.8652 40.5113 38.8491 39.8797 39.4511V39.4576ZM47.4047 37.2567L50.6297 40.3638C51.2613 40.9723 51.2613 41.9562 50.6297 42.5583L47.4047 45.6654C46.7731 46.2739 45.7519 46.2739 45.127 45.6654C44.5022 45.0569 44.4955 44.073 45.127 43.471L47.2098 41.4643L45.127 39.4576C44.4955 38.8491 44.4955 37.8652 45.127 37.2632C45.7586 36.6612 46.7798 36.6547 47.4047 37.2632V37.2567Z" fill="#14213D"/>
</g>
<defs>
<clipPath id="clip0_104_3">
<rect width="85" height="85" fill="white"/>
</clipPath>
</defs>
</svg>
